<svg width="425" height="159" xmlns="http://www.w3.org/2000/svg"><path d="M416.59 149.627c.672 0 1.05-.294 1.05-.924v-.63c0-.63-.378-.924-1.05-.924h-1.597v2.478h1.597Zm-1.597 4.621h-2.142v-8.779h3.991c1.974 0 2.982 1.176 2.982 2.772 0 1.386-.63 2.269-1.596 2.647l1.974 3.36h-2.352l-1.638-3.024h-1.219v3.024Zm7.688-3.906v-1.093c0-3.528-2.773-6.301-6.427-6.301-3.655 0-6.428 2.773-6.428 6.301v1.093c0 3.528 2.773 6.301 6.428 6.301 3.654 0 6.427-2.773 6.427-6.301Zm-14.828-.547c0-4.914 3.738-8.653 8.401-8.653 4.662 0 8.401 3.739 8.401 8.653 0 4.915-3.739 8.654-8.401 8.654-4.663 0-8.401-3.739-8.401-8.654ZM286.825 11 283 0h-63v11h66.825Zm7.303 21-3.825-11H220v11h74.128ZM341 158h55v-11h-55v11Zm0-21h55v-11h-55v11Zm0-21h33v-11h-33v11Zm0-21h33V84h-33v11Zm0-21h33V63h-62.908L308 71.891 304.908 63H242v11h33V63.891L278.549 74h58.903L341 63.892V74Zm33-32h-55.605l-3.826 11H374V42ZM242 95h33V84h-33v11Zm0 21h33v-11h-33v11Zm-22 21h55v-11h-55v11Zm0 21h55v-11h-55v11ZM333 0l-3.824 11H396V0h-63Zm-11.128 32H396V21h-70.302l-3.826 11ZM242 53h59.431l-3.826-11H242v11Zm43.922 42h44.157l3.862-11H282.06l3.862 11Zm7.372 21h29.413l3.862-11h-37.137l3.862 11Zm7.372 21h14.669l3.861-11h-22.391l3.861 11ZM308 158l3.824-11h-7.647L308 158Zm-220 0h81c11 0 20.864-4.169 28.333-11H88v11Zm86-53v11h37c0-3.809-.521-7.492-1.471-11H174Zm-64 11h33v-11h-33v11Zm64-63h35.529A42.012 42.012 0 0 0 211 42h-37v11Zm-64 0h33V42h-33v11Zm59-53H88v11h109.333C189.864 4.169 179.919 0 169 0Zm36.367 21H88v11h121.792a41.708 41.708 0 0 0-4.425-11ZM110 63v11h86.179a42.15 42.15 0 0 0 9.176-11H110Zm86.179 21H110v11h95.355a42.15 42.15 0 0 0-9.176-11ZM88 137h117.367a41.708 41.708 0 0 0 4.425-11H88v11ZM0 11h77V0H0v11Zm0 21h77V21H0v11Zm22 21h33V42H22v11Zm0 21h33V63H22v11Zm0 21h33V84H22v11Zm0 21h33v-11H22v11ZM0 137h77v-11H0v11Zm0 21h77v-11H0v11Z" fill="#0A0B09" fill-rule="evenodd"/></svg>