<svg width="425" height="158" xmlns="http://www.w3.org/2000/svg"><path d="m307.325 73-3.47-10H242v10h33v-9.491L278.362 73h28.963ZM282 0h-62v10h65.47L282 0Zm7.285 21H220v10h72.755l-3.47-10Zm33.961 10H396V21h-69.285l-3.469 10ZM242 52h58.04l-3.47-10H242v10Zm43.776 42h44.448l3.53-10h-51.508l3.53 10Zm7.414 21h29.62l3.53-10h-36.68l3.53 10Zm7.415 21h14.791l3.53-10h-21.852l3.531 10ZM308 157l3.512-10h-7.024L308 157ZM334 0l-3.469 10H396V0h-62Zm40 42h-54.57l-3.47 10H374V42Zm-33 31h33V63h-61.855l-3.47 10h28.963L341 63.477V73Zm0 21h33V84h-33v10Zm0 21h33v-10h-33v10Zm0 21h55v-10h-55v10Zm0 21h55v-10h-55v10Zm-99-63h33V84h-33v10Zm0 21h33v-10h-33v10Zm-22 21h55v-10h-55v10Zm0 21h55v-10h-55v10ZM196.188 10C188.861 3.768 179.374 0 169 0H88v10h108.188Zm1.103 74H110v10h95.361a42.194 42.194 0 0 0-8.07-10ZM174 105v10h37c0-3.45-.438-6.793-1.223-10H174Zm0-53h35.777A41.982 41.982 0 0 0 211 42h-37v10Zm-64 0h33V42h-33v10Zm99.535-21a41.722 41.722 0 0 0-4.167-10H88v10h121.535ZM110 63v10h87.291a42.194 42.194 0 0 0 8.07-10H110Zm0 52h33v-10h-33v10Zm-22 21h117.368a41.763 41.763 0 0 0 4.167-10H88v10Zm0 21h81c10.373 0 19.861-3.769 27.188-10H88v10ZM0 10h77V0H0v10Zm0 21h77V21H0v10Zm22 21h33V42H22v10Zm0 21h33V63H22v10Zm0 21h33V84H22v10Zm0 21h33v-10H22v10ZM0 136h77v-10H0v10Zm0 21h77v-10H0v10Zm416.59-8.373c.672 0 1.05-.294 1.05-.924v-.63c0-.63-.378-.924-1.05-.924h-1.597v2.478h1.597Zm-1.597 4.621h-2.142v-8.779h3.991c1.974 0 2.982 1.176 2.982 2.772 0 1.386-.63 2.269-1.596 2.647l1.974 3.36h-2.352l-1.638-3.024h-1.219v3.024Zm7.688-3.906v-1.093c0-3.528-2.773-6.301-6.427-6.301-3.655 0-6.428 2.773-6.428 6.301v1.093c0 3.528 2.773 6.301 6.428 6.301 3.654 0 6.427-2.773 6.427-6.301Zm-14.828-.547c0-4.914 3.738-8.653 8.401-8.653 4.662 0 8.401 3.739 8.401 8.653 0 4.915-3.739 8.654-8.401 8.654-4.663 0-8.401-3.739-8.401-8.654Z" fill="#FFFFFE" fill-rule="evenodd"/></svg>